<mxfile host="Electron" modified="2024-12-16T15:22:32.278Z" agent="Mozilla/5.0 (Windows NT 10.0; Win64; x64) AppleWebKit/537.36 (KHTML, like Gecko) draw.io/24.5.3 Chrome/124.0.6367.207 Electron/30.0.6 Safari/537.36" etag="NQN3sDNmvxS58inIsoWE" version="24.5.3" type="device">
  <diagram id="hvotS04MxeV1DNFJu2YN" name="Page-1">
    <mxGraphModel dx="1674" dy="836" grid="1" gridSize="10" guides="1" tooltips="1" connect="1" arrows="1" fold="1" page="1" pageScale="1" pageWidth="827" pageHeight="1169" math="0" shadow="0">
      <root>
        <mxCell id="0" />
        <mxCell id="1" parent="0" />
        <mxCell id="t5EIZiG2oOQZ73ChpeEL-11" style="edgeStyle=orthogonalEdgeStyle;rounded=0;orthogonalLoop=1;jettySize=auto;html=1;" edge="1" parent="1" source="MJzPq7zeocchDsyE4FMD-7" target="MJzPq7zeocchDsyE4FMD-16">
          <mxGeometry relative="1" as="geometry">
            <Array as="points">
              <mxPoint x="600" y="140" />
              <mxPoint x="600" y="140" />
            </Array>
          </mxGeometry>
        </mxCell>
        <mxCell id="MJzPq7zeocchDsyE4FMD-7" value="" style="rounded=0;whiteSpace=wrap;html=1;" parent="1" vertex="1">
          <mxGeometry x="440" y="40" width="240" height="70" as="geometry" />
        </mxCell>
        <mxCell id="MJzPq7zeocchDsyE4FMD-8" value="&lt;font style=&quot;font-size: 18px;&quot; face=&quot;Georgia&quot;&gt;Initialisation&lt;/font&gt;" style="text;html=1;align=left;verticalAlign=middle;whiteSpace=wrap;rounded=0;" parent="1" vertex="1">
          <mxGeometry x="440" y="20" width="120" height="20" as="geometry" />
        </mxCell>
        <mxCell id="t5EIZiG2oOQZ73ChpeEL-8" style="edgeStyle=orthogonalEdgeStyle;rounded=0;orthogonalLoop=1;jettySize=auto;html=1;entryX=0;entryY=0.25;entryDx=0;entryDy=0;" edge="1" parent="1" source="MJzPq7zeocchDsyE4FMD-16" target="MJzPq7zeocchDsyE4FMD-20">
          <mxGeometry relative="1" as="geometry" />
        </mxCell>
        <mxCell id="MJzPq7zeocchDsyE4FMD-16" value="" style="rounded=0;whiteSpace=wrap;html=1;" parent="1" vertex="1">
          <mxGeometry x="440" y="160" width="240" height="80" as="geometry" />
        </mxCell>
        <mxCell id="MJzPq7zeocchDsyE4FMD-17" value="&lt;font style=&quot;font-size: 18px;&quot; face=&quot;Georgia&quot;&gt;Prediction&lt;/font&gt;" style="text;html=1;align=left;verticalAlign=middle;whiteSpace=wrap;rounded=0;" parent="1" vertex="1">
          <mxGeometry x="440" y="140" width="120" height="20" as="geometry" />
        </mxCell>
        <mxCell id="t5EIZiG2oOQZ73ChpeEL-6" style="edgeStyle=orthogonalEdgeStyle;rounded=0;orthogonalLoop=1;jettySize=auto;html=1;entryX=0.5;entryY=1;entryDx=0;entryDy=0;" edge="1" parent="1" source="MJzPq7zeocchDsyE4FMD-20" target="MJzPq7zeocchDsyE4FMD-16">
          <mxGeometry relative="1" as="geometry">
            <Array as="points">
              <mxPoint x="560" y="280" />
            </Array>
          </mxGeometry>
        </mxCell>
        <mxCell id="MJzPq7zeocchDsyE4FMD-20" value="" style="rounded=0;whiteSpace=wrap;html=1;movable=0;resizable=0;rotatable=0;deletable=0;editable=0;locked=1;connectable=0;" parent="1" vertex="1">
          <mxGeometry x="800" y="160" width="240" height="160" as="geometry" />
        </mxCell>
        <mxCell id="MJzPq7zeocchDsyE4FMD-21" value="&lt;font style=&quot;font-size: 18px;&quot; face=&quot;Georgia&quot;&gt;Measurement Update&lt;/font&gt;" style="text;html=1;align=left;verticalAlign=middle;whiteSpace=wrap;rounded=0;movable=0;resizable=0;rotatable=0;deletable=0;editable=0;locked=1;connectable=0;" parent="1" vertex="1">
          <mxGeometry x="800" y="140" width="200" height="20" as="geometry" />
        </mxCell>
        <mxCell id="MJzPq7zeocchDsyE4FMD-55" value="" style="shape=image;verticalLabelPosition=bottom;labelBackgroundColor=default;verticalAlign=top;aspect=fixed;imageAspect=0;image=https://www.latex2png.com/pngs/c02886be523f3beae1f8fc31ce2ca52a.png;" parent="1" vertex="1">
          <mxGeometry x="360" y="188.97000000000003" width="34" height="22.06" as="geometry" />
        </mxCell>
        <mxCell id="MJzPq7zeocchDsyE4FMD-74" value="" style="shape=image;verticalLabelPosition=bottom;labelBackgroundColor=default;verticalAlign=top;aspect=fixed;imageAspect=0;image=https://www.latex2png.com/pngs/ef122833dce4502386135c783a679933.png;movable=0;resizable=0;rotatable=0;deletable=0;editable=0;locked=1;connectable=0;" parent="1" vertex="1">
          <mxGeometry x="810" y="200" width="145" height="19.82" as="geometry" />
        </mxCell>
        <mxCell id="MJzPq7zeocchDsyE4FMD-76" value="" style="shape=image;verticalLabelPosition=bottom;labelBackgroundColor=default;verticalAlign=top;aspect=fixed;imageAspect=0;image=https://www.latex2png.com/pngs/df32eb44fae563ecc1d56af2f15dc916.png;movable=0;resizable=0;rotatable=0;deletable=0;editable=0;locked=1;connectable=0;" parent="1" vertex="1">
          <mxGeometry x="810" y="170" width="154.86" height="20" as="geometry" />
        </mxCell>
        <mxCell id="MJzPq7zeocchDsyE4FMD-77" value="" style="shape=image;verticalLabelPosition=bottom;labelBackgroundColor=default;verticalAlign=top;aspect=fixed;imageAspect=0;image=https://www.latex2png.com/pngs/7d2c1bece1cf354a134afb8f9ca9fede.png;movable=0;resizable=0;rotatable=0;deletable=0;editable=0;locked=1;connectable=0;" parent="1" vertex="1">
          <mxGeometry x="810" y="229.72000000000003" width="110.69" height="20" as="geometry" />
        </mxCell>
        <mxCell id="MJzPq7zeocchDsyE4FMD-78" value="" style="shape=image;verticalLabelPosition=bottom;labelBackgroundColor=default;verticalAlign=top;aspect=fixed;imageAspect=0;image=https://www.latex2png.com/pngs/b6f81f91b2cd168ff73ed2373db5b154.png;movable=0;resizable=0;rotatable=0;deletable=0;editable=0;locked=1;connectable=0;" parent="1" vertex="1">
          <mxGeometry x="810" y="260" width="160.27" height="20" as="geometry" />
        </mxCell>
        <mxCell id="MJzPq7zeocchDsyE4FMD-79" value="" style="shape=image;verticalLabelPosition=bottom;labelBackgroundColor=default;verticalAlign=top;aspect=fixed;imageAspect=0;image=https://www.latex2png.com/pngs/fcb0745f00d7847c1f88ce8a5d191213.png;movable=0;resizable=0;rotatable=0;deletable=0;editable=0;locked=1;connectable=0;" parent="1" vertex="1">
          <mxGeometry x="810" y="290" width="201.43" height="20" as="geometry" />
        </mxCell>
        <mxCell id="MJzPq7zeocchDsyE4FMD-83" value="" style="shape=image;verticalLabelPosition=bottom;labelBackgroundColor=default;verticalAlign=top;aspect=fixed;imageAspect=0;image=https://www.latex2png.com/pngs/41ca81aadc0c611b8cf0c8bcf706c8b7.png;" parent="1" vertex="1">
          <mxGeometry x="450" y="50" width="84.29" height="20" as="geometry" />
        </mxCell>
        <mxCell id="MJzPq7zeocchDsyE4FMD-84" value="" style="shape=image;verticalLabelPosition=bottom;labelBackgroundColor=default;verticalAlign=top;aspect=fixed;imageAspect=0;image=https://www.latex2png.com/pngs/616e4a08e88b322f7cbf9e71a16b70e7.png;" parent="1" vertex="1">
          <mxGeometry x="451.57000000000005" y="80" width="81.14" height="20" as="geometry" />
        </mxCell>
        <mxCell id="MJzPq7zeocchDsyE4FMD-157" value="" style="shape=image;verticalLabelPosition=bottom;labelBackgroundColor=default;verticalAlign=top;aspect=fixed;imageAspect=0;image=https://www.latex2png.com/pngs/b050f580ff40c21b84dd72f88081281d.png;" parent="1" vertex="1">
          <mxGeometry x="451.57" y="168.97000000000003" width="160.57" height="20" as="geometry" />
        </mxCell>
        <mxCell id="MJzPq7zeocchDsyE4FMD-158" value="" style="shape=image;verticalLabelPosition=bottom;labelBackgroundColor=default;verticalAlign=top;aspect=fixed;imageAspect=0;image=https://www.latex2png.com/pngs/4d70516f46299df1fbe035419f4fcf4c.png;" parent="1" vertex="1">
          <mxGeometry x="450" y="211.02999999999997" width="214.34" height="21.14" as="geometry" />
        </mxCell>
        <mxCell id="t5EIZiG2oOQZ73ChpeEL-7" value="" style="shape=image;verticalLabelPosition=bottom;labelBackgroundColor=default;verticalAlign=top;aspect=fixed;imageAspect=0;image=https://www.latex2png.com/pngs/76e00efbffb71ac40141374af33eea83.png;" vertex="1" parent="1">
          <mxGeometry x="636" y="285" width="106.3" height="20" as="geometry" />
        </mxCell>
        <mxCell id="t5EIZiG2oOQZ73ChpeEL-9" value="" style="shape=image;verticalLabelPosition=bottom;labelBackgroundColor=default;verticalAlign=top;aspect=fixed;imageAspect=0;image=https://www.latex2png.com/pngs/2e0990c465e15b9928810f5e2a6f895c.png;" vertex="1" parent="1">
          <mxGeometry x="708" y="176" width="60" height="20" as="geometry" />
        </mxCell>
        <mxCell id="t5EIZiG2oOQZ73ChpeEL-19" value="" style="shape=image;verticalLabelPosition=bottom;labelBackgroundColor=default;verticalAlign=top;aspect=fixed;imageAspect=0;image=https://www.latex2png.com/pngs/8abe555f57da98062083c493a924ad94.png;" vertex="1" parent="1">
          <mxGeometry x="841" y="343" width="27.6" height="20" as="geometry" />
        </mxCell>
        <mxCell id="t5EIZiG2oOQZ73ChpeEL-23" value="" style="endArrow=classic;html=1;rounded=0;" edge="1" parent="1">
          <mxGeometry width="50" height="50" relative="1" as="geometry">
            <mxPoint x="854" y="340" as="sourcePoint" />
            <mxPoint x="854" y="320" as="targetPoint" />
          </mxGeometry>
        </mxCell>
        <mxCell id="t5EIZiG2oOQZ73ChpeEL-24" value="" style="endArrow=classic;html=1;rounded=0;entryX=0;entryY=0.5;entryDx=0;entryDy=0;" edge="1" parent="1" target="MJzPq7zeocchDsyE4FMD-16">
          <mxGeometry width="50" height="50" relative="1" as="geometry">
            <mxPoint x="400" y="200" as="sourcePoint" />
            <mxPoint x="450" y="190" as="targetPoint" />
          </mxGeometry>
        </mxCell>
      </root>
    </mxGraphModel>
  </diagram>
</mxfile>
